# xmcd
#
# Track frame offsets: 
#        150
#        10596
#        21028
#        31046
#        39733
#        52353
#        63336
#        74024
#        84926
#        96271
#        106867
#        116632
#        126037
#        138232
#        148206
#        158813
#        167643
#        179384
#        191090
#        200890
#        211075
#        223830
#        233614
#        243712
#        253591
#        263059
#        274622
#        284448
#        296305
#        306257
#
# Disc length: 4208 seconds
#
# Revision: 1
# Processed by: cddbd v1.5.2PL0 Copyright (c) Steve Scherf et al.
# Submitted via: ExactAudioCopyFreeDBPlugin 1.0
#
DISCID=c2106e1e
DTITLE=Various Artist - The History of New Orleans Rhythm and Blues, 19
DTITLE=55-1962
DYEAR=2014
DGENRE=Rhythm and Blues
TTITLE0=Little Richard - Rip It Up
TTITLE1=Roy Montrell - Mellow Saxophone
TTITLE2=Eddie Bo - I’m Wise
TTITLE3=Fats Domino - I’m In Love Again
TTITLE4=Earl King - Is Everything All Right
TTITLE5=Smiley Lewis - One Night
TTITLE6=Fats Domino - Blueberry Hill
TTITLE7=Shirley and Lee - Let The Good Times Roll
TTITLE8=Amos Milburn - Chicken Shack Boogie
TTITLE9=Paul Gayten - You Better Believe It
TTITLE10=Etta James - Tough Lover
TTITLE11=Dave Bartholomew - Shrimp and Gumbo
TTITLE12=Little Richard - Slippin’ And Slidin’
TTITLE13=Bobby Charles - Take It Easy, Greasy
TTITLE14=Clarence "Frogman" Henry - Ain’t Got No Home
TTITLE15=Smiley Lewis - Shame Shame Shame
TTITLE16=The Dukes - Last Ride
TTITLE17=Chris Kenner - Grandma’s House
TTITLE18=Huey "Piano" Smith - Little Liza Jane
TTITLE19=Junior Gordon - Blow Wind Blow
TTITLE20=Lee Allen - Rockin’ at Cosmo’s
TTITLE21=Little Richard - Long Tall Sally
TTITLE22=Bobby Marchan - Chicken - Wah - Wah
TTITLE23=Big Boy Miles and The Shaw-Wees - Just To Hold My Hand
TTITLE24=Clarence "Frogman" Henry - Troubles, Troubles
TTITLE25=Danny White - Let’s Play
TTITLE26=Art Neville - Oooh-Wee Baby
TTITLE27=Roland Cook - Tell Me Baby
TTITLE28=Charles "Hungry" Williams - So Glad You’re Mine
TTITLE29=Lloyd Price - I’m Glad, Glad
EXTD=
EXTT0=
EXTT1=
EXTT2=
EXTT3=
EXTT4=
EXTT5=
EXTT6=
EXTT7=
EXTT8=
EXTT9=
EXTT10=
EXTT11=
EXTT12=
EXTT13=
EXTT14=
EXTT15=
EXTT16=
EXTT17=
EXTT18=
EXTT19=
EXTT20=
EXTT21=
EXTT22=
EXTT23=
EXTT24=
EXTT25=
EXTT26=
EXTT27=
EXTT28=
EXTT29=
PLAYORDER=
